<mxfile host="app.diagrams.net" modified="2024-01-25T16:13:18.832Z" agent="Mozilla/5.0 (Windows NT 10.0; Win64; x64) AppleWebKit/537.36 (KHTML, like Gecko) Chrome/120.0.0.0 Safari/537.36" version="22.1.18" etag="2-JhyucxClkioWvw_6ZG" type="github">
  <diagram name="Страница — 1" id="IvBWsFyNG-3Jqv7YBLWt">
    <mxGraphModel>
      <root>
        <mxCell id="0" />
        <mxCell id="1" parent="0" />
        <mxCell id="2" value="База данных" style="whiteSpace=wrap;strokeWidth=2;" vertex="1" parent="1">
          <mxGeometry y="84" width="107" height="34" as="geometry" />
        </mxCell>
        <mxCell id="3" value="Пользователи" style="whiteSpace=wrap;strokeWidth=2;" vertex="1" parent="1">
          <mxGeometry x="160" width="117" height="34" as="geometry" />
        </mxCell>
        <mxCell id="4" value="Роли" style="whiteSpace=wrap;strokeWidth=2;" vertex="1" parent="1">
          <mxGeometry x="193" y="84" width="51" height="34" as="geometry" />
        </mxCell>
        <mxCell id="5" value="Права доступа" style="whiteSpace=wrap;strokeWidth=2;" vertex="1" parent="1">
          <mxGeometry x="157" y="168" width="122" height="34" as="geometry" />
        </mxCell>
        <mxCell id="6" value="" style="curved=1;startArrow=none;endArrow=block;exitX=0.6509979874241291;exitY=0.005882375380572151;entryX=-0.003736316648303953;entryY=0.5029411876902861;" edge="1" parent="1" source="2" target="3">
          <mxGeometry relative="1" as="geometry">
            <Array as="points">
              <mxPoint x="132" y="17" />
            </Array>
          </mxGeometry>
        </mxCell>
        <mxCell id="7" value="" style="curved=1;startArrow=none;endArrow=block;exitX=1.0033307654835353;exitY=0.5088235630708582;entryX=-0.002218770045860141;entryY=0.5088235630708582;" edge="1" parent="1" source="2" target="4">
          <mxGeometry relative="1" as="geometry">
            <Array as="points" />
          </mxGeometry>
        </mxCell>
        <mxCell id="8" value="" style="curved=1;startArrow=none;endArrow=block;exitX=0.6509979874241291;exitY=1.0117647507611442;entryX=0.0029212451371990267;entryY=0.5147059384514304;" edge="1" parent="1" source="2" target="5">
          <mxGeometry relative="1" as="geometry">
            <Array as="points">
              <mxPoint x="132" y="186" />
            </Array>
          </mxGeometry>
        </mxCell>
      </root>
    </mxGraphModel>
  </diagram>
</mxfile>
